<svg width="1029" height="150" viewBox="0 0 1029 150" fill="none" xmlns="http://www.w3.org/2000/svg">
<path fill-rule="evenodd" clip-rule="evenodd" d="M26.0773 18.4697C20.6632 19.9296 16.1431 21.9354 12.604 24.4635C9.16359 26.7893 6.32257 29.8335 4.29655 33.3651C2.4741 36.6555 1.52731 40.324 1.5398 44.0471C1.5398 50.0409 3.55769 55.1682 7.53758 59.3222C11.5175 63.4765 18.1237 66.5919 27.2631 68.6512C30.4421 69.3693 33.9937 70.0398 37.8183 70.6393C41.6429 71.2386 44.704 71.7845 46.964 72.2059C54.3338 73.5946 57.4321 75.0723 58.7608 76.0633C60.4559 77.351 61.2817 79.2857 61.2817 81.9976C61.2817 85.5939 59.7108 88.0329 56.3518 89.6769C52.6265 91.4928 47.293 92.4185 40.4633 92.4185C34.4739 92.3515 28.5324 91.3883 22.8549 89.5642C19.5982 88.6124 16.4508 87.3479 13.4609 85.7899L11.2815 84.5496L9.90317 86.4544L0 100.211L2.48356 101.249C7.58644 103.326 12.8615 104.994 18.2541 106.234C25.0582 107.812 32.04 108.584 39.0414 108.531C52.4463 108.531 63.2561 105.901 71.1103 100.721C79.1819 95.4094 83.2674 88.5017 83.2674 80.1758C83.2674 73.5292 80.9204 68.0755 76.2946 63.9748C71.7747 60.0286 65.3546 57.2275 57.1901 55.6668C54.6382 55.1326 51.3722 54.5748 47.5662 53.9813C43.7601 53.3879 40.4012 52.7945 37.3837 52.2009C32.2862 51.1625 28.5609 49.8688 26.4063 48.3436C24.4568 46.9906 23.5193 44.9787 23.5193 42.1777C23.5193 39.0087 25.1024 36.7715 28.4863 35.1573C32.2676 33.377 37.0298 32.4334 42.6365 32.4334C48.4126 32.4754 54.1473 33.3723 59.6364 35.092C62.6518 35.9561 65.578 37.0824 68.3784 38.4569L70.744 39.7387L71.9857 37.6437L80.2374 23.8641L78.0085 22.8909C72.9884 20.803 67.7465 19.2411 62.3744 18.2324C56.3067 16.9747 50.1178 16.3283 43.9092 16.3037C37.8897 16.2455 31.8901 16.9743 26.0773 18.4697Z" fill="#2E3191"/>
<path fill-rule="evenodd" clip-rule="evenodd" d="M105.024 28.7531C95.8226 37.1799 91.1534 48.6392 91.1534 62.8344C91.1534 77.2254 96.0521 88.5304 105.701 96.4351C115.35 104.34 128.804 108.304 145.773 108.304C152.177 108.33 158.562 107.625 164.791 106.203C170.711 104.834 176.539 103.123 182.244 101.082L184.727 100.186L174.917 83.8127L172.539 85.4327C172.477 85.4742 170.95 86.406 164.927 88.4C158.713 90.5166 152.171 91.618 145.574 91.6578C141.141 91.7016 136.725 91.134 132.461 89.9725C128.815 88.9779 125.413 87.2996 122.452 85.0351C119.478 82.7185 117.121 79.7615 115.573 76.4065C114.059 73.0884 113.216 69.5263 113.089 65.9085H185.733V56.1463C185.733 43.5001 181.871 33.554 174.247 26.5811C166.622 19.6081 155.577 16 141.607 16C126.581 16 114.288 20.2906 105.024 28.7531ZM140.675 31.9221C148.71 31.9221 154.72 33.7024 158.526 37.263C161.978 40.5092 163.915 45.0786 164.35 50.8233H113.369C114.377 45.8032 117.15 41.2636 121.229 37.9573C126.041 33.8982 132.399 31.9221 140.675 31.9221Z" fill="#2E3191"/>
<path fill-rule="evenodd" clip-rule="evenodd" d="M215.671 20.6871C204.444 23.9688 197.664 27.85 197.366 28.0102L196.267 28.6452V106.487H217.88V40.9235C230.583 32.3898 250.122 35.5825 250.327 35.5825L252.097 35.8852L253.004 34.5559L264.415 17.7436L260.832 17.2333C242.25 14.6043 226.001 17.6606 215.671 20.6871Z" fill="#F16522"/>
<path fill-rule="evenodd" clip-rule="evenodd" d="M215.671 20.6889C204.444 23.9706 197.664 27.8517 197.366 28.012L196.267 28.647V106.489H217.88V40.9252C226.572 16.5941 264.415 17.7514 264.415 17.7514L260.832 17.241C242.25 14.6061 226.001 17.6623 215.671 20.6889Z" fill="#2E3191"/>
<path fill-rule="evenodd" clip-rule="evenodd" d="M288.006 17.6893C281.84 18.5973 277.035 19.44 273.725 20.2114L271.135 20.8049L277.996 37.9554L280.363 37.3085C280.43 37.3085 287.224 35.4214 292.388 34.4778C297.01 33.5883 301.706 33.1135 306.421 33.0595C309.754 33.0565 313.084 33.2547 316.391 33.6529C319.019 33.9235 321.58 34.6219 323.96 35.7181C325.92 36.6412 327.564 38.0831 328.692 39.8723C329.816 41.6526 330.38 44.0263 330.38 46.8511V47.0113C321.62 47.3615 313.225 47.9251 305.509 48.6373C296.871 49.4623 289.365 51.0587 283.156 53.3849C276.798 55.7586 271.824 59.153 268.365 63.3903C264.908 67.6275 263.106 73.2652 263.106 80.0066C263.03 83.9581 263.895 87.8744 265.636 91.4589C267.379 95.0432 269.95 98.2016 273.16 100.694C279.798 106.065 287.987 108.789 297.505 108.789C324.302 108.789 349.275 101.406 350.324 101.074L352.013 100.569V47.4504C352.013 41.7653 350.95 36.899 348.87 32.9764C346.733 28.9825 343.516 25.6064 339.558 23.1964C335.184 20.5553 330.321 18.742 325.233 17.8555C319.068 16.7635 312.808 16.2429 306.539 16.3007C300.332 16.3122 294.137 16.7764 288.006 17.6893ZM289.525 88.3089C286.695 86.2911 285.316 83.2764 285.316 79.0986C285.316 75.4134 286.509 72.636 288.96 70.6066C291.58 68.4464 295.109 66.8144 299.449 65.764C303.266 64.856 308.588 64.144 315.249 63.6632C320.838 63.2478 325.941 62.9155 330.38 62.6722V89.3771C322.569 90.8251 309.189 91.4602 303.527 91.4602C297.164 91.4779 292.438 90.4157 289.525 88.3327V88.3089Z" fill="#F16522"/>
<path d="M206.756 133.794V127.895C206.756 126.643 206.234 125.652 204.676 125.652C203.341 125.652 202.031 126.672 202.031 128.886V133.794H200.82V127.895C200.82 126.643 200.292 125.652 198.728 125.652C197.399 125.652 196.089 126.672 196.089 128.886V133.794H194.847V127.005C194.859 126.308 194.834 125.611 194.772 124.916H195.952V126.417H195.989C196.255 125.864 196.692 125.402 197.242 125.094C197.792 124.786 198.428 124.647 199.063 124.696C199.661 124.657 200.254 124.826 200.732 125.171C201.21 125.517 201.541 126.017 201.664 126.578H201.701C201.969 125.999 202.412 125.511 202.974 125.175C203.535 124.84 204.188 124.673 204.849 124.696C205.265 124.668 205.681 124.726 206.072 124.865C206.461 125.004 206.816 125.221 207.11 125.503C207.405 125.784 207.632 126.123 207.778 126.495C207.923 126.868 207.983 127.267 207.954 127.664V133.77L206.756 133.794Z" fill="#00539E"/>
<path d="M217.547 133.501C216.632 133.819 215.664 133.984 214.691 133.988C211.432 133.988 210.214 132.006 210.214 129.342C210.214 126.677 211.872 124.695 214.362 124.695C217.138 124.695 218.28 126.712 218.28 129.098V129.656H211.544C211.544 131.537 212.661 133.051 214.79 133.051C215.749 133.022 216.689 132.797 217.547 132.392V133.501ZM216.927 128.718C216.927 127.169 216.238 125.638 214.442 125.638C212.648 125.638 211.544 127.253 211.544 128.718H216.927Z" fill="#00539E"/>
<path d="M232.484 133.793V127.895C232.484 126.642 231.962 125.651 230.398 125.651C229.068 125.651 227.752 126.672 227.752 128.886V133.793H226.511V127.895C226.511 126.642 225.988 125.651 224.431 125.651C223.096 125.651 221.779 126.672 221.779 128.886V133.793H220.569V127.004C220.58 126.307 220.554 125.61 220.493 124.915H221.667V126.417H221.705C221.971 125.864 222.407 125.403 222.955 125.095C223.503 124.787 224.138 124.648 224.772 124.696C225.371 124.655 225.965 124.823 226.446 125.169C226.924 125.515 227.257 126.015 227.379 126.577H227.417C227.685 125.999 228.128 125.511 228.69 125.176C229.251 124.841 229.904 124.673 230.564 124.696C230.979 124.668 231.397 124.725 231.787 124.864C232.177 125.003 232.531 125.221 232.826 125.502C233.119 125.784 233.349 126.122 233.494 126.495C233.639 126.868 233.698 127.266 233.669 127.663V133.77L232.484 133.793Z" fill="#00539E"/>
<path d="M236.557 120.744H237.8V126.417C238.089 125.884 238.532 125.441 239.073 125.138C239.617 124.836 240.239 124.686 240.867 124.708C243.765 124.708 244.927 126.661 244.927 129.355C244.927 132.049 243.567 134.001 240.867 134.001C240.245 134.047 239.626 133.918 239.08 133.63C238.534 133.342 238.089 132.908 237.8 132.381V133.794H236.557V120.744ZM240.679 125.652C238.464 125.652 237.769 127.735 237.769 129.355C237.769 130.975 238.525 133.064 240.679 133.064C242.996 133.064 243.599 131.082 243.599 129.355C243.599 127.628 242.996 125.652 240.679 125.652Z" fill="#00539E"/>
<path d="M254.001 133.501C253.086 133.82 252.118 133.985 251.145 133.988C247.886 133.988 246.668 132.006 246.668 129.342C246.668 126.677 248.327 124.695 250.816 124.695C253.598 124.695 254.734 126.712 254.734 129.098V129.656H248.004C248.004 131.537 249.115 133.051 251.244 133.051C252.203 133.022 253.143 132.798 254.001 132.392V133.501ZM253.381 128.718C253.381 127.169 252.692 125.638 250.896 125.638C249.102 125.638 248.004 127.253 248.004 128.718H253.381Z" fill="#00539E"/>
<path d="M257.049 126.897C257.07 126.235 257.042 125.573 256.968 124.915H258.21V126.624H258.248C258.688 125.633 259.521 124.707 260.775 124.707C261.062 124.712 261.346 124.748 261.625 124.814V125.959C261.336 125.89 261.036 125.857 260.737 125.858C258.806 125.858 258.254 127.805 258.254 129.419V133.805H257.013L257.049 126.897Z" fill="#00539E"/>
<path d="M272.676 124.707C275.867 124.707 277.271 126.939 277.271 129.354C277.271 131.769 275.867 134 272.676 134C269.484 134 268.087 131.775 268.087 129.354C268.087 126.933 269.497 124.707 272.676 124.707ZM272.676 133.063C274.8 133.063 275.943 131.407 275.943 129.354C275.943 127.301 274.8 125.651 272.676 125.651C270.553 125.651 269.417 127.301 269.417 129.354C269.417 131.407 270.559 133.063 272.676 133.063Z" fill="#00539E"/>
<path d="M280.401 125.859H278.413V124.916H280.401V124.275C280.401 122.412 280.474 120.536 283.008 120.536C283.394 120.521 283.779 120.58 284.144 120.708L284.062 121.664C283.76 121.534 283.432 121.469 283.101 121.474C281.442 121.474 281.617 123.088 281.617 124.15V124.916H283.832V125.859H281.617V133.794H280.375L280.401 125.859Z" fill="#00539E"/>
<path d="M295.258 121.633H298.306L303.616 133.792H300.623L299.468 131.009H294.004L292.824 133.792H290.031L295.258 121.633ZM296.749 124.072H296.704L294.755 129.081H298.698L296.749 124.072Z" fill="#00539E"/>
<path d="M312.568 123.869C311.697 123.534 310.77 123.359 309.83 123.353C308.904 123.353 307.707 123.715 307.707 125.038C307.707 127.145 313.611 126.225 313.611 130.326C313.611 132.99 311.271 133.999 308.556 133.999C307.387 133.998 306.223 133.84 305.1 133.531L305.353 131.341C306.295 131.813 307.338 132.069 308.403 132.088C309.427 132.088 310.793 131.614 310.793 130.522C310.793 128.207 304.887 129.163 304.887 125.145C304.887 122.427 307.222 121.436 309.593 121.436C310.687 121.423 311.775 121.569 312.823 121.869L312.568 123.869Z" fill="#00539E"/>
<path d="M318.514 123.562H314.652V121.633H325.077V123.55H321.216V133.781H318.514V123.562Z" fill="#00539E"/>
<path d="M326.586 121.633H329.506C332.404 121.633 335.856 121.544 335.856 124.927C335.852 125.646 335.563 126.336 335.047 126.859C334.531 127.382 333.827 127.699 333.076 127.746V127.775C333.808 127.829 334.231 128.487 334.503 129.027L336.664 133.775H333.654L332.033 129.977C331.647 129.075 331.299 128.725 330.17 128.725H329.301V133.775H326.586V121.633ZM329.289 126.82H330.182C331.51 126.82 333.038 126.648 333.038 125.134C333.038 123.621 331.536 123.55 330.182 123.55H329.257L329.289 126.82Z" fill="#00539E"/>
<path d="M342.443 121.633H345.491L350.801 133.792H347.808L346.653 131.009H341.189L340.009 133.792H337.208L342.443 121.633ZM343.927 124.072H343.889L341.94 129.081H345.877L343.927 124.072Z" fill="#00539E"/>
<line x1="413.5" x2="413.5" y2="150" stroke="black" stroke-width="5"/>
<path d="M503.462 102L491.45 80.784H486.302V102H475.382V47.556H495.818C500.03 47.556 503.618 48.31 506.582 49.818C509.546 51.274 511.756 53.276 513.212 55.824C514.72 58.32 515.474 61.128 515.474 64.248C515.474 67.836 514.434 71.086 512.354 73.998C510.274 76.858 507.18 78.834 503.072 79.926L516.098 102H503.462ZM486.302 72.594H495.428C498.392 72.594 500.602 71.892 502.058 70.488C503.514 69.032 504.242 67.03 504.242 64.482C504.242 61.986 503.514 60.062 502.058 58.71C500.602 57.306 498.392 56.604 495.428 56.604H486.302V72.594ZM565.521 79.458C565.521 81.018 565.417 82.422 565.209 83.67H533.619C533.879 86.79 534.971 89.234 536.895 91.002C538.819 92.77 541.185 93.654 543.993 93.654C548.049 93.654 550.935 91.912 552.651 88.428H564.429C563.181 92.588 560.789 96.02 557.253 98.724C553.717 101.376 549.375 102.702 544.227 102.702C540.067 102.702 536.323 101.792 532.995 99.972C529.719 98.1 527.145 95.474 525.273 92.094C523.453 88.714 522.543 84.814 522.543 80.394C522.543 75.922 523.453 71.996 525.273 68.616C527.093 65.236 529.641 62.636 532.917 60.816C536.193 58.996 539.963 58.086 544.227 58.086C548.335 58.086 552.001 58.97 555.225 60.738C558.501 62.506 561.023 65.028 562.791 68.304C564.611 71.528 565.521 75.246 565.521 79.458ZM554.211 76.338C554.159 73.53 553.145 71.294 551.169 69.63C549.193 67.914 546.775 67.056 543.915 67.056C541.211 67.056 538.923 67.888 537.051 69.552C535.231 71.164 534.113 73.426 533.697 76.338H554.211ZM584.411 44.28V102H573.491V44.28H584.411ZM635.37 79.458C635.37 81.018 635.266 82.422 635.058 83.67H603.468C603.728 86.79 604.82 89.234 606.744 91.002C608.668 92.77 611.034 93.654 613.842 93.654C617.898 93.654 620.784 91.912 622.5 88.428H634.278C633.03 92.588 630.638 96.02 627.102 98.724C623.566 101.376 619.224 102.702 614.076 102.702C609.916 102.702 606.172 101.792 602.844 99.972C599.568 98.1 596.994 95.474 595.122 92.094C593.302 88.714 592.392 84.814 592.392 80.394C592.392 75.922 593.302 71.996 595.122 68.616C596.942 65.236 599.49 62.636 602.766 60.816C606.042 58.996 609.812 58.086 614.076 58.086C618.184 58.086 621.85 58.97 625.074 60.738C628.35 62.506 630.872 65.028 632.64 68.304C634.46 71.528 635.37 75.246 635.37 79.458ZM624.06 76.338C624.008 73.53 622.994 71.294 621.018 69.63C619.042 67.914 616.624 67.056 613.764 67.056C611.06 67.056 608.772 67.888 606.9 69.552C605.08 71.164 603.962 73.426 603.546 76.338H624.06ZM640.533 80.238C640.533 75.87 641.391 71.996 643.107 68.616C644.875 65.236 647.241 62.636 650.205 60.816C653.221 58.996 656.575 58.086 660.267 58.086C663.491 58.086 666.299 58.736 668.691 60.036C671.135 61.336 673.085 62.974 674.541 64.95V58.788H685.539V102H674.541V95.682C673.137 97.71 671.187 99.4 668.691 100.752C666.247 102.052 663.413 102.702 660.189 102.702C656.549 102.702 653.221 101.766 650.205 99.894C647.241 98.022 644.875 95.396 643.107 92.016C641.391 88.584 640.533 84.658 640.533 80.238ZM674.541 80.394C674.541 77.742 674.021 75.48 672.981 73.608C671.941 71.684 670.537 70.228 668.769 69.24C667.001 68.2 665.103 67.68 663.075 67.68C661.047 67.68 659.175 68.174 657.459 69.162C655.743 70.15 654.339 71.606 653.247 73.53C652.207 75.402 651.687 77.638 651.687 80.238C651.687 82.838 652.207 85.126 653.247 87.102C654.339 89.026 655.743 90.508 657.459 91.548C659.227 92.588 661.099 93.108 663.075 93.108C665.103 93.108 667.001 92.614 668.769 91.626C670.537 90.586 671.941 89.13 672.981 87.258C674.021 85.334 674.541 83.046 674.541 80.394ZM712.74 102.702C709.204 102.702 706.032 102.078 703.224 100.83C700.416 99.53 698.18 97.788 696.516 95.604C694.904 93.42 694.02 91.002 693.864 88.35H704.862C705.07 90.014 705.876 91.392 707.28 92.484C708.736 93.576 710.53 94.122 712.662 94.122C714.742 94.122 716.354 93.706 717.498 92.874C718.694 92.042 719.292 90.976 719.292 89.676C719.292 88.272 718.564 87.232 717.108 86.556C715.704 85.828 713.442 85.048 710.322 84.216C707.098 83.436 704.446 82.63 702.366 81.798C700.338 80.966 698.57 79.692 697.062 77.976C695.606 76.26 694.878 73.946 694.878 71.034C694.878 68.642 695.554 66.458 696.906 64.482C698.31 62.506 700.286 60.946 702.834 59.802C705.434 58.658 708.476 58.086 711.96 58.086C717.108 58.086 721.216 59.386 724.284 61.986C727.352 64.534 729.042 67.992 729.354 72.36H718.902C718.746 70.644 718.018 69.292 716.718 68.304C715.47 67.264 713.78 66.744 711.648 66.744C709.672 66.744 708.138 67.108 707.046 67.836C706.006 68.564 705.486 69.578 705.486 70.878C705.486 72.334 706.214 73.452 707.67 74.232C709.126 74.96 711.388 75.714 714.456 76.494C717.576 77.274 720.15 78.08 722.178 78.912C724.206 79.744 725.948 81.044 727.404 82.812C728.912 84.528 729.692 86.816 729.744 89.676C729.744 92.172 729.042 94.408 727.638 96.384C726.286 98.36 724.31 99.92 721.71 101.064C719.162 102.156 716.172 102.702 712.74 102.702ZM778.878 79.458C778.878 81.018 778.774 82.422 778.566 83.67H746.976C747.236 86.79 748.328 89.234 750.252 91.002C752.176 92.77 754.542 93.654 757.35 93.654C761.406 93.654 764.292 91.912 766.008 88.428H777.786C776.538 92.588 774.146 96.02 770.61 98.724C767.074 101.376 762.732 102.702 757.584 102.702C753.424 102.702 749.68 101.792 746.352 99.972C743.076 98.1 740.502 95.474 738.63 92.094C736.81 88.714 735.9 84.814 735.9 80.394C735.9 75.922 736.81 71.996 738.63 68.616C740.45 65.236 742.998 62.636 746.274 60.816C749.55 58.996 753.32 58.086 757.584 58.086C761.692 58.086 765.358 58.97 768.582 60.738C771.858 62.506 774.38 65.028 776.148 68.304C777.968 71.528 778.878 75.246 778.878 79.458ZM767.568 76.338C767.516 73.53 766.502 71.294 764.526 69.63C762.55 67.914 760.132 67.056 757.272 67.056C754.568 67.056 752.28 67.888 750.408 69.552C748.588 71.164 747.47 73.426 747.054 76.338H767.568ZM852.001 102H841.081L816.355 64.638V102H805.435V47.478H816.355L841.081 84.918V47.478H852.001V102ZM881.98 102.702C877.82 102.702 874.076 101.792 870.748 99.972C867.42 98.1 864.794 95.474 862.87 92.094C860.998 88.714 860.062 84.814 860.062 80.394C860.062 75.974 861.024 72.074 862.948 68.694C864.924 65.314 867.602 62.714 870.982 60.894C874.362 59.022 878.132 58.086 882.292 58.086C886.452 58.086 890.222 59.022 893.602 60.894C896.982 62.714 899.634 65.314 901.558 68.694C903.534 72.074 904.522 75.974 904.522 80.394C904.522 84.814 903.508 88.714 901.48 92.094C899.504 95.474 896.8 98.1 893.368 99.972C889.988 101.792 886.192 102.702 881.98 102.702ZM881.98 93.186C883.956 93.186 885.802 92.718 887.518 91.782C889.286 90.794 890.69 89.338 891.73 87.414C892.77 85.49 893.29 83.15 893.29 80.394C893.29 76.286 892.198 73.14 890.014 70.956C887.882 68.72 885.256 67.602 882.136 67.602C879.016 67.602 876.39 68.72 874.258 70.956C872.178 73.14 871.138 76.286 871.138 80.394C871.138 84.502 872.152 87.674 874.18 89.91C876.26 92.094 878.86 93.186 881.98 93.186ZM925.246 67.758V88.662C925.246 90.118 925.584 91.184 926.26 91.86C926.988 92.484 928.184 92.796 929.848 92.796H934.918V102H928.054C918.85 102 914.248 97.528 914.248 88.584V67.758H909.1V58.788H914.248V48.102H925.246V58.788H934.918V67.758H925.246ZM982.943 79.458C982.943 81.018 982.839 82.422 982.631 83.67H951.041C951.301 86.79 952.393 89.234 954.317 91.002C956.241 92.77 958.607 93.654 961.415 93.654C965.471 93.654 968.357 91.912 970.073 88.428H981.851C980.603 92.588 978.211 96.02 974.675 98.724C971.139 101.376 966.797 102.702 961.649 102.702C957.489 102.702 953.745 101.792 950.417 99.972C947.141 98.1 944.567 95.474 942.695 92.094C940.875 88.714 939.965 84.814 939.965 80.394C939.965 75.922 940.875 71.996 942.695 68.616C944.515 65.236 947.063 62.636 950.339 60.816C953.615 58.996 957.385 58.086 961.649 58.086C965.757 58.086 969.423 58.97 972.647 60.738C975.923 62.506 978.445 65.028 980.213 68.304C982.033 71.528 982.943 75.246 982.943 79.458ZM971.633 76.338C971.581 73.53 970.567 71.294 968.591 69.63C966.615 67.914 964.197 67.056 961.337 67.056C958.633 67.056 956.345 67.888 954.473 69.552C952.653 71.164 951.535 73.426 951.119 76.338H971.633ZM1007.45 102.702C1003.91 102.702 1000.74 102.078 997.933 100.83C995.125 99.53 992.889 97.788 991.225 95.604C989.613 93.42 988.729 91.002 988.573 88.35H999.571C999.779 90.014 1000.59 91.392 1001.99 92.484C1003.45 93.576 1005.24 94.122 1007.37 94.122C1009.45 94.122 1011.06 93.706 1012.21 92.874C1013.4 92.042 1014 90.976 1014 89.676C1014 88.272 1013.27 87.232 1011.82 86.556C1010.41 85.828 1008.15 85.048 1005.03 84.216C1001.81 83.436 999.155 82.63 997.075 81.798C995.047 80.966 993.279 79.692 991.771 77.976C990.315 76.26 989.587 73.946 989.587 71.034C989.587 68.642 990.263 66.458 991.615 64.482C993.019 62.506 994.995 60.946 997.543 59.802C1000.14 58.658 1003.19 58.086 1006.67 58.086C1011.82 58.086 1015.93 59.386 1018.99 61.986C1022.06 64.534 1023.75 67.992 1024.06 72.36H1013.61C1013.46 70.644 1012.73 69.292 1011.43 68.304C1010.18 67.264 1008.49 66.744 1006.36 66.744C1004.38 66.744 1002.85 67.108 1001.76 67.836C1000.72 68.564 1000.2 69.578 1000.2 70.878C1000.2 72.334 1000.92 73.452 1002.38 74.232C1003.84 74.96 1006.1 75.714 1009.17 76.494C1012.29 77.274 1014.86 78.08 1016.89 78.912C1018.92 79.744 1020.66 81.044 1022.11 82.812C1023.62 84.528 1024.4 86.816 1024.45 89.676C1024.45 92.172 1023.75 94.408 1022.35 96.384C1021 98.36 1019.02 99.92 1016.42 101.064C1013.87 102.156 1010.88 102.702 1007.45 102.702Z" fill="black"/>
</svg>
